<svg xmlns="http://www.w3.org/2000/svg" viewBox="0 0 1920 1184">
  <defs>
    <style>
      .cls-1 {
        fill: #f6f6f6;
      }

      .cls-2 {
        fill: #686868;
        opacity: 0.4;
      }

      .cls-3 {
        opacity: 0.64;
      }

      .cls-4 {
        fill: #cfe6e3;
      }

      .cls-5 {
        fill: #7bafa5;
      }

      .cls-18, .cls-6 {
        fill: #fff;
      }

      .cls-6 {
        opacity: 0.55;
      }

      .cls-7 {
        fill: #dd8300;
      }

      .cls-8 {
        fill: #e1e6e3;
      }

      .cls-9 {
        fill: #cbd3cb;
      }

      .cls-10 {
        fill: #687679;
      }

      .cls-11 {
        fill: #728083;
      }

      .cls-12 {
        fill: #a8a29d;
      }

      .cls-13 {
        fill: #bb1f2e;
      }

      .cls-14 {
        fill: #ff4c4a;
      }

      .cls-15 {
        fill: #6b98ff;
      }

      .cls-16 {
        fill: #5683ed;
      }

      .cls-17 {
        fill: none;
        stroke: #fff;
        stroke-miterlimit: 10;
      }

      .cls-19 {
        fill: #a1a1a1;
      }

      .cls-20 {
        fill: #4f4f4f;
      }
    </style>
  </defs>
  <g id="Group_33" data-name="Group 33" transform="translate(0 -3579)">
    <path id="Background_DIV4" class="cls-1" d="M0,0H1920V1184H0Z" transform="translate(0 3579)"/>
    <rect id="shadowvectordiv4" class="cls-2" width="424" height="6" transform="translate(1438 4573)"/>
    <g id="Background_vector_DIV_4" data-name="Background vector DIV_4" class="cls-3" transform="translate(1443.009 4353.779)">
      <g id="Колба_3_" transform="translate(58.986 56.344)">
        <path id="Path_45" data-name="Path 45" class="cls-4" d="M237.265,263.2l-43.46-67.257V125.469c2.6-.1,4.663-1.875,4.663-4.134,0-2.308-2.163-4.134-4.807-4.134H169.528c-2.644,0-4.807,1.875-4.807,4.134,0,2.211,2.067,4.038,4.663,4.134v70.478l-43.412,67.209c-9.663,15.144,5.192,16.874,5.192,16.874H232.218C232.073,280.078,246.928,278.347,237.265,263.2Z" transform="translate(-122.706 -117.2)"/>
        <g id="Group_3" data-name="Group 3" transform="translate(7.288 119.947)">
          <path id="Path_46" data-name="Path 46" class="cls-5" d="M219.994,366.7H158.362l-18.99,30.528s-4.615,7.259,2.308,7.259h94.9c6.923,0,2.308-7.259,2.308-7.259Z" transform="translate(-137.865 -366.7)"/>
        </g>
        <path id="Path_47" data-name="Path 47" class="cls-6" d="M171.2,332.522,237.639,380.5H254.85l-69.516-69.9Z" transform="translate(-147.887 -217.623)"/>
      </g>
      <g id="Колба_2_" transform="translate(-0.009 8.702)">
        <path id="Path_48" data-name="Path 48" class="cls-4" d="M114.606,206.794l-43.46-86.871V28.773a5.123,5.123,0,0,0,4.663-5.336A5.109,5.109,0,0,0,71,18.1H46.868a5.109,5.109,0,0,0-4.807,5.336,5.123,5.123,0,0,0,4.663,5.336v91.1L3.264,206.794C-6.4,226.408,8.408,228.62,8.408,228.62H109.462C109.413,228.62,124.269,226.408,114.606,206.794Z" transform="translate(0.009 -18.1)"/>
        <g id="Group_4" data-name="Group 4" transform="translate(7.343 155.041)">
          <path id="Path_49" data-name="Path 49" class="cls-7" d="M97.394,340.6H35.762l-18.99,39.421S12.157,389.4,19.08,389.4h94.9c6.923,0,2.308-9.375,2.308-9.375Z" transform="translate(-15.265 -340.6)"/>
        </g>
        <path id="Path_50" data-name="Path 50" class="cls-6" d="M48.6,296.416l66.439,62.017H132.25L62.734,268.1Z" transform="translate(-25.231 -147.913)"/>
      </g>
      <g id="ЭВМ_1_" transform="translate(150.806)">
        <g id="Корпус_1_">
          <path id="Path_51" data-name="Path 51" class="cls-8" d="M313.7,11.2V198.934a11.213,11.213,0,0,0,11.2,11.2H566.477a11.213,11.213,0,0,0,11.2-11.2V11.2A11.213,11.213,0,0,0,566.477,0H324.853A11.172,11.172,0,0,0,313.7,11.2Z" transform="translate(-313.7)"/>
          <rect id="Rectangle_22" data-name="Rectangle 22" class="cls-9" width="263.45" height="34.614" transform="translate(0.24 184.607)"/>
        </g>
        <g id="Экран_1_" transform="translate(13.461 14.903)">
          <path id="Path_52" data-name="Path 52" class="cls-10" d="M570.1,183.4h-219.8a8.6,8.6,0,0,1-8.605-8.605V39.605A8.6,8.6,0,0,1,350.305,31H570.1a8.6,8.6,0,0,1,8.605,8.605V174.792A8.6,8.6,0,0,1,570.1,183.4Z" transform="translate(-341.7 -31)"/>
          <g id="Group_5" data-name="Group 5">
            <path id="Path_53" data-name="Path 53" class="cls-11" d="M834.492,310.992V293.3l-.192,19.422A7.081,7.081,0,0,0,834.492,310.992Z" transform="translate(-597.483 -167.2)"/>
            <path id="Path_54" data-name="Path 54" class="cls-11" d="M570.1,31h-219.8a8.6,8.6,0,0,0-8.605,8.605v48.94s118.985,71.631,237.009,68.6V39.605A8.6,8.6,0,0,0,570.1,31Z" transform="translate(-341.7 -31)"/>
          </g>
        </g>
        <g id="Group_8" data-name="Group 8" transform="translate(157.109 191.53)">
          <path id="Path_55" data-name="Path 55" class="cls-12" d="M650.6,398.4a10.094,10.094,0,0,0-10.1,10.1h20.191A10.094,10.094,0,0,0,650.6,398.4Z" transform="translate(-640.5 -398.4)"/>
          <g id="Group_7" data-name="Group 7" transform="translate(3.702 4.327)">
            <g id="Group_6" data-name="Group 6">
              <circle id="Ellipse_5" data-name="Ellipse 5" class="cls-13" cx="6.442" cy="6.442" r="6.442"/>
              <circle id="Ellipse_6" data-name="Ellipse 6" class="cls-14" cx="4.952" cy="4.952" r="4.952" transform="translate(1.49 1.49)"/>
            </g>
            <rect id="Rectangle_23" data-name="Rectangle 23" class="cls-13" width="1.442" height="3.558" transform="translate(1.015 1.196) rotate(-40.559)"/>
          </g>
        </g>
        <g id="Group_11" data-name="Group 11" transform="translate(184.271 191.53)">
          <path id="Path_56" data-name="Path 56" class="cls-12" d="M707.1,398.4A10.094,10.094,0,0,0,697,408.5h20.191A10.094,10.094,0,0,0,707.1,398.4Z" transform="translate(-697 -398.4)"/>
          <g id="Group_10" data-name="Group 10" transform="translate(2.69 3.894)">
            <g id="Group_9" data-name="Group 9" transform="translate(1.06)">
              <circle id="Ellipse_7" data-name="Ellipse 7" class="cls-13" cx="6.442" cy="6.442" r="6.442"/>
              <circle id="Ellipse_8" data-name="Ellipse 8" class="cls-14" cx="4.952" cy="4.952" r="4.952" transform="translate(1.49 1.49)"/>
            </g>
            <rect id="Rectangle_24" data-name="Rectangle 24" class="cls-13" width="1.442" height="3.558" transform="translate(0 7.165) rotate(-90)"/>
          </g>
        </g>
        <g id="Group_14" data-name="Group 14" transform="translate(211.433 191.53)">
          <path id="Path_57" data-name="Path 57" class="cls-12" d="M763.6,398.4a10.094,10.094,0,0,0-10.1,10.1h20.191A10.094,10.094,0,0,0,763.6,398.4Z" transform="translate(-753.5 -398.4)"/>
          <g id="Group_13" data-name="Group 13" transform="translate(3.654 4.279)">
            <g id="Group_12" data-name="Group 12">
              <circle id="Ellipse_9" data-name="Ellipse 9" class="cls-13" cx="6.442" cy="6.442" r="6.442"/>
              <circle id="Ellipse_10" data-name="Ellipse 10" class="cls-14" cx="4.952" cy="4.952" r="4.952" transform="translate(1.49 1.49)"/>
            </g>
            <rect id="Rectangle_25" data-name="Rectangle 25" class="cls-13" width="1.442" height="3.558" transform="translate(11.216 0.639) rotate(45)"/>
          </g>
        </g>
        <g id="Group_15" data-name="Group 15" transform="translate(63.074 192.924)">
          <rect id="Rectangle_26" data-name="Rectangle 26" class="cls-15" width="8.653" height="18.749"/>
          <rect id="Rectangle_27" data-name="Rectangle 27" class="cls-16" width="8.653" height="9.615"/>
          <rect id="Rectangle_28" data-name="Rectangle 28" class="cls-15" width="8.653" height="0.961"/>
          <circle id="Ellipse_11" data-name="Ellipse 11" class="cls-17" cx="1.923" cy="1.923" r="1.923" transform="translate(2.404 3.606)"/>
          <rect id="Rectangle_29" data-name="Rectangle 29" class="cls-18" width="0.481" height="3.846" transform="translate(4.086 12.259)"/>
        </g>
        <g id="Group_26" data-name="Group 26" transform="translate(89.9 191.867)">
          <g id="Group_16" data-name="Group 16">
            <rect id="Rectangle_30" data-name="Rectangle 30" class="cls-19" width="7.884" height="7.884"/>
            <rect id="Rectangle_31" data-name="Rectangle 31" class="cls-20" width="6.73" height="6.73" transform="translate(0.529 0.577)"/>
          </g>
          <g id="Group_17" data-name="Group 17" transform="translate(10.913)">
            <rect id="Rectangle_32" data-name="Rectangle 32" class="cls-19" width="7.884" height="7.884"/>
            <rect id="Rectangle_33" data-name="Rectangle 33" class="cls-20" width="6.73" height="6.73" transform="translate(0.529 0.577)"/>
          </g>
          <g id="Group_18" data-name="Group 18" transform="translate(21.826)">
            <rect id="Rectangle_34" data-name="Rectangle 34" class="cls-19" width="7.884" height="7.884"/>
            <rect id="Rectangle_35" data-name="Rectangle 35" class="cls-20" width="6.73" height="6.73" transform="translate(0.529 0.577)"/>
          </g>
          <g id="Group_19" data-name="Group 19" transform="translate(32.739)">
            <rect id="Rectangle_36" data-name="Rectangle 36" class="cls-19" width="7.884" height="7.884"/>
            <rect id="Rectangle_37" data-name="Rectangle 37" class="cls-20" width="6.73" height="6.73" transform="translate(0.577 0.577)"/>
          </g>
          <g id="Group_20" data-name="Group 20" transform="translate(43.652)">
            <rect id="Rectangle_38" data-name="Rectangle 38" class="cls-19" width="7.884" height="7.884"/>
            <rect id="Rectangle_39" data-name="Rectangle 39" class="cls-20" width="6.73" height="6.73" transform="translate(0.577 0.577)"/>
          </g>
          <g id="Group_21" data-name="Group 21" transform="translate(0 10.769)">
            <rect id="Rectangle_40" data-name="Rectangle 40" class="cls-19" width="7.884" height="7.884"/>
            <rect id="Rectangle_41" data-name="Rectangle 41" class="cls-20" width="6.73" height="6.73" transform="translate(0.529 0.577)"/>
          </g>
          <g id="Group_22" data-name="Group 22" transform="translate(10.913 10.769)">
            <rect id="Rectangle_42" data-name="Rectangle 42" class="cls-19" width="7.884" height="7.884"/>
            <rect id="Rectangle_43" data-name="Rectangle 43" class="cls-20" width="6.73" height="6.73" transform="translate(0.529 0.577)"/>
          </g>
          <g id="Group_23" data-name="Group 23" transform="translate(21.826 10.769)">
            <rect id="Rectangle_44" data-name="Rectangle 44" class="cls-19" width="7.884" height="7.884"/>
            <rect id="Rectangle_45" data-name="Rectangle 45" class="cls-20" width="6.73" height="6.73" transform="translate(0.529 0.577)"/>
          </g>
          <g id="Group_24" data-name="Group 24" transform="translate(32.739 10.769)">
            <rect id="Rectangle_46" data-name="Rectangle 46" class="cls-19" width="7.884" height="7.884"/>
            <rect id="Rectangle_47" data-name="Rectangle 47" class="cls-20" width="6.73" height="6.73" transform="translate(0.577 0.577)"/>
          </g>
          <g id="Group_25" data-name="Group 25" transform="translate(43.652 10.769)">
            <rect id="Rectangle_48" data-name="Rectangle 48" class="cls-19" width="7.884" height="7.884"/>
            <rect id="Rectangle_49" data-name="Rectangle 49" class="cls-20" width="6.73" height="6.73" transform="translate(0.577 0.577)"/>
          </g>
        </g>
      </g>
    </g>
  </g>
</svg>
