<svg id="Background" xmlns="http://www.w3.org/2000/svg" viewBox="0 0 1880 1040">
    <defs>
        <style>
            .cls-1 {
            fill: none;
            }

            .cls-2 {
            fill: #3eadd6;
            }

            .cls-3 {
            clip-path: url(#clip-path);
            }

            .cls-4 {
            opacity: 0.11;
            }

            .cls-5 {
            fill: #fff;
            }
        </style>
        <clipPath id="clip-path">
            <rect id="Rectangle_2" data-name="Rectangle 2" class="cls-1" width="1880" height="1040"/>
        </clipPath>
    </defs>
    <g id="Слой_1" data-name="Слой 1">
        <rect id="Rectangle_1" data-name="Rectangle 1" class="cls-2" width="1880" height="1040"/>
        <g id="Group_11" data-name="Group 11" class="cls-3">
            <g id="Group_1" data-name="Group 1" class="cls-4" transform="translate(-29.191 -243.075)">
                <path id="Path_4" data-name="Path 4" class="cls-5"
                      d="M148.849,65.811a4.65,4.65,0,0,1,3.741-.394,4.555,4.555,0,0,1,2.78,2.493l18.066,35.148a4.441,4.441,0,0,1,.4,3.682,4.536,4.536,0,0,1-2.541,2.732L88.062,150.879l25.458,49.506,92.463-46.01a4.651,4.651,0,0,1,3.738-.385,4.555,4.555,0,0,1,2.774,2.494l18.075,35.158a4.441,4.441,0,0,1,.392,3.676,4.536,4.536,0,0,1-2.536,2.728L89.12,267.3a4.641,4.641,0,0,1-3.737.394,4.545,4.545,0,0,1-2.775-2.493L-29.164,47.756a4.441,4.441,0,0,1-.428-3.689,4.535,4.535,0,0,1,2.533-2.753L112.3-27.9a4.64,4.64,0,0,1,3.754-.409,4.545,4.545,0,0,1,2.786,2.508L136.913,9.353a4.441,4.441,0,0,1,.392,3.676,4.536,4.536,0,0,1-2.536,2.728L42.276,61.728,65.639,107.18Z"
                      transform="translate(29.812 244.132)"/>
                <path id="Path_5" data-name="Path 5" class="cls-5"
                      d="M334.307-140.154a4.641,4.641,0,0,1,3.737-.394,4.545,4.545,0,0,1,2.775,2.493L452.581,79.392a4.432,4.432,0,0,1,.4,3.672,4.526,4.526,0,0,1-2.529,2.731l-42.525,21.137a4.641,4.641,0,0,1-3.737.394,4.545,4.545,0,0,1-2.775-2.493L309.9-73.2,258.98-47.873l49.3,117.77c23.431,56.073,7.961,87.938-26.8,105.213l-1.7.847c-7.432,3.7-13.464,5.142-22.208,6.134a4.441,4.441,0,0,1-4.808-2.581l-18.085-35.177c-1.616-3.139-.46-5.267,3.339-5.681,6.394-.751,9.547-1.839,12.259-3.187l1.576-.78c9.792-4.882,16.039-14.57,6.3-37.324L190.262-63.454a4.78,4.78,0,0,1,2.281-6.144Z"
                      transform="translate(25.235 248.288)"/>
                <path id="Path_6" data-name="Path 6" class="cls-5"
                      d="M675.313-34.694a3.778,3.778,0,0,1,1.871,3.506,3.8,3.8,0,0,1-2.321,3.235L626.8-4.024a6.83,6.83,0,0,1-7.246-.6L521.094-66.164,500.963-56.2,545.74,30.932a4.45,4.45,0,0,1,.38,3.688,4.546,4.546,0,0,1-2.554,2.726L501.09,58.482a4.661,4.661,0,0,1-3.719.365,4.565,4.565,0,0,1-2.763-2.474l-111.8-217.437a4.45,4.45,0,0,1-.4-3.678,4.545,4.545,0,0,1,2.531-2.736l42.515-21.137A4.66,4.66,0,0,1,431.2-189a4.565,4.565,0,0,1,2.779,2.495L478.52-99.839l19.28-9.63,6.247-113.042a6.624,6.624,0,0,1,3.8-6.1l46.932-23.333c2.938-1.454,5.709.52,5.552,3.8l-6.972,136.5Z"
                      transform="translate(21.228 252.424)"/>
            </g>
            <g id="Group_2" data-name="Group 2" class="cls-4" transform="translate(-106.447 10.944)">
                <path id="Path_7" data-name="Path 7" class="cls-5"
                      d="M69.919,440.582a4.65,4.65,0,0,1,3.741-.394,4.555,4.555,0,0,1,2.78,2.493l18.066,35.158a4.451,4.451,0,0,1,.4,3.678,4.545,4.545,0,0,1-2.531,2.736L9.142,525.66l25.458,49.5,92.463-45.962a4.661,4.661,0,0,1,3.74-.389,4.565,4.565,0,0,1,2.782,2.489l18.066,35.158a4.441,4.441,0,0,1,.392,3.676,4.536,4.536,0,0,1-2.536,2.728L10.2,642.072a4.651,4.651,0,0,1-3.741.394,4.555,4.555,0,0,1-2.78-2.493L-108.083,422.536a4.441,4.441,0,0,1-.4-3.679,4.535,4.535,0,0,1,2.535-2.734L33.367,346.866a4.65,4.65,0,0,1,3.744-.39,4.555,4.555,0,0,1,2.778,2.5l18.066,35.148a4.45,4.45,0,0,1,.392,3.68,4.545,4.545,0,0,1-2.536,2.733l-92.463,45.991L-13.29,481.98Z"
                      transform="translate(108.711 -23.768)"/>
                <path id="Path_8" data-name="Path 8" class="cls-5"
                      d="M255.377,234.626a4.64,4.64,0,0,1,3.737-.394,4.545,4.545,0,0,1,2.775,2.493L373.661,454.172a4.45,4.45,0,0,1,.387,3.674,4.545,4.545,0,0,1-2.531,2.729l-42.525,21.137a4.641,4.641,0,0,1-3.739.39,4.545,4.545,0,0,1-2.772-2.5l-91.5-178.033L180.06,326.9,229.38,444.629c23.4,56.112,7.931,87.89-26.829,105.223l-1.7.847c-7.422,3.688-13.464,5.142-22.208,6.134a4.461,4.461,0,0,1-4.808-2.581l-18.085-35.216c-1.616-3.139-.45-5.258,3.339-5.672,6.394-.751,9.547-1.839,12.259-3.187l1.586-.79c9.792-4.882,16.039-14.57,6.3-37.315L111.342,311.259a4.78,4.78,0,0,1,2.272-6.144Z"
                      transform="translate(104.135 -19.611)"/>
                <path id="Path_9" data-name="Path 9" class="cls-5"
                      d="M596.383,340.076a3.766,3.766,0,0,1-.451,6.741l-48.067,23.9a6.83,6.83,0,0,1-7.236-.6l-98.455-61.63-20.141,10.015,44.787,87.2a4.451,4.451,0,0,1,.392,3.68,4.545,4.545,0,0,1-2.536,2.733L422.16,433.252a4.65,4.65,0,0,1-3.766.4,4.554,4.554,0,0,1-2.784-2.526L303.877,213.707a4.432,4.432,0,0,1-.4-3.677,4.526,4.526,0,0,1,2.541-2.726l42.515-21.137a4.64,4.64,0,0,1,3.737-.394,4.545,4.545,0,0,1,2.775,2.493l44.542,86.667,19.28-9.63,6.247-113.042a6.614,6.614,0,0,1,3.8-6.086l46.931-23.333c2.938-1.454,5.709.52,5.562,3.794l-6.991,136.481Z"
                      transform="translate(100.129 -15.476)"/>
                <path id="Path_10" data-name="Path 10" class="cls-5"
                      d="M695.186,11.976a4.661,4.661,0,0,1,3.742-.386,4.565,4.565,0,0,1,2.779,2.494L813.43,231.532a4.431,4.431,0,0,1,.4,3.675,4.526,4.526,0,0,1-2.535,2.729L768.77,259.121a4.651,4.651,0,0,1-3.738.385,4.555,4.555,0,0,1-2.774-2.494l-47.676-92.887-21.718-54.041-3.819,1.926,1.273,64.21L686.9,295.444a7.32,7.32,0,0,1-4.093,6.317L634.83,325.614a4.661,4.661,0,0,1-3.742.386,4.565,4.565,0,0,1-2.779-2.494L516.547,106.077a4.441,4.441,0,0,1-.4-3.682,4.536,4.536,0,0,1,2.541-2.732l42.515-21.185a4.651,4.651,0,0,1,3.738-.385,4.555,4.555,0,0,1,2.774,2.494l46.716,90.875,22.677,55.929,3.819-1.926-.979-66.714,3.133-116.721a7.322,7.322,0,0,1,4.122-6.24Z"
                      transform="translate(95.698 -11.365)"/>
            </g>
            <g id="Group_3" data-name="Group 3" class="cls-4" transform="translate(-183.726 371.799)">
                <path id="Path_11" data-name="Path 11" class="cls-5"
                      d="M-9,815.372a4.64,4.64,0,0,1,3.737-.394,4.545,4.545,0,0,1,2.775,2.493l18.075,35.148a4.45,4.45,0,0,1,.392,3.68,4.545,4.545,0,0,1-2.536,2.733L-69.787,900.44l25.458,49.506,92.463-45.981a4.661,4.661,0,0,1,3.742-.386,4.565,4.565,0,0,1,2.779,2.495l18.066,35.158a4.432,4.432,0,0,1,.4,3.675,4.526,4.526,0,0,1-2.535,2.729L-68.73,1016.852a4.661,4.661,0,0,1-3.74.389,4.565,4.565,0,0,1-2.782-2.489L-187.013,797.306a4.441,4.441,0,0,1-.392-3.676,4.536,4.536,0,0,1,2.536-2.728l139.306-69.256a4.66,4.66,0,0,1,3.74-.389,4.565,4.565,0,0,1,2.782,2.489L-20.976,758.9a4.431,4.431,0,0,1,.4,3.669,4.526,4.526,0,0,1-2.53,2.725l-92.424,45.982,23.314,45.5Z"
                      transform="translate(187.635 -398.504)"/>
                <path id="Path_12" data-name="Path 12" class="cls-5"
                      d="M176.447,609.4a4.65,4.65,0,0,1,3.738-.385,4.555,4.555,0,0,1,2.774,2.494L294.731,828.942a4.441,4.441,0,0,1,.392,3.676,4.536,4.536,0,0,1-2.536,2.728l-42.515,21.185a4.64,4.64,0,0,1-3.737.394,4.545,4.545,0,0,1-2.775-2.493L152.046,676.4,101.13,701.725,150.48,819.4c23.422,56.073,7.951,87.938-26.81,105.213l-1.694.847c-7.432,3.7-13.464,5.152-22.208,6.134a4.461,4.461,0,0,1-4.817-2.581L76.817,893.836c-1.606-3.139-.45-5.267,3.339-5.681,6.4-.742,9.547-1.83,12.259-3.187l1.586-.78c9.792-4.882,16.039-14.57,6.3-37.315L32.412,686.029a4.78,4.78,0,0,1,2.272-6.144Z"
                      transform="translate(183.058 -394.346)"/>
                <path id="Path_13" data-name="Path 13" class="cls-5"
                      d="M517.454,714.856A3.766,3.766,0,0,1,517,721.6l-48.067,23.891a6.82,6.82,0,0,1-7.236-.6l-98.455-61.63-20.132,10.015L387.891,780.4a4.441,4.441,0,0,1,.4,3.682,4.536,4.536,0,0,1-2.541,2.732l-42.515,21.185a4.65,4.65,0,0,1-3.738.385,4.555,4.555,0,0,1-2.774-2.494l-111.733-217.4a4.45,4.45,0,0,1-.392-3.68,4.545,4.545,0,0,1,2.536-2.733l42.515-21.185a4.661,4.661,0,0,1,3.742-.386A4.565,4.565,0,0,1,276.168,563L320.7,649.663l19.29-9.581,6.247-113.042a6.623,6.623,0,0,1,3.789-6.1l46.941-23.333c2.938-1.454,5.7.52,5.552,3.8l-6.991,136.471Z"
                      transform="translate(179.051 -390.211)"/>
                <path id="Path_14" data-name="Path 14" class="cls-5"
                      d="M616.187,386.716a4.64,4.64,0,0,1,3.737-.394,4.545,4.545,0,0,1,2.775,2.493L734.5,606.262a4.432,4.432,0,0,1,.4,3.675,4.526,4.526,0,0,1-2.535,2.729L689.84,633.851a4.651,4.651,0,0,1-3.738.385,4.555,4.555,0,0,1-2.774-2.494L635.653,538.99l-21.718-54.1-3.819,1.926,1.273,64.21-3.407,119.234a7.349,7.349,0,0,1-4.1,6.307L555.9,700.421a4.64,4.64,0,0,1-3.739.39,4.545,4.545,0,0,1-2.772-2.5L437.617,480.846a4.441,4.441,0,0,1-.392-3.676,4.536,4.536,0,0,1,2.536-2.728l42.515-21.137a4.66,4.66,0,0,1,3.74-.389A4.565,4.565,0,0,1,488.8,455.4L535.5,546.279l22.677,55.929L562,600.282l-.979-66.714,3.124-116.721a7.33,7.33,0,0,1,4.064-6.288Z"
                      transform="translate(174.622 -386.099)"/>
            </g>
            <g id="Group_4" data-name="Group 4" class="cls-4" transform="translate(-45.941 732.695)">
                <path id="Path_15" data-name="Path 15" class="cls-5"
                      d="M97.517,984.176a4.65,4.65,0,0,1,3.741-.394,4.555,4.555,0,0,1,2.78,2.493L215.8,1203.722a4.432,4.432,0,0,1,.4,3.675,4.526,4.526,0,0,1-2.535,2.729l-42.525,21.185a4.64,4.64,0,0,1-3.737.394,4.545,4.545,0,0,1-2.775-2.493l-91.513-178.09L22.2,1076.457l49.281,117.722c23.431,56.073,7.961,87.928-26.8,105.213l-1.7.847c-7.432,3.688-13.464,5.142-22.208,6.134a4.461,4.461,0,0,1-4.808-2.581l-18.085-35.187c-1.616-3.139-.46-5.258,3.339-5.672,6.394-.751,9.547-1.839,12.259-3.187l1.576-.79c9.792-4.873,16.039-14.56,6.3-37.315l-67.886-160.815a4.78,4.78,0,0,1,2.281-6.144Z"
                      transform="translate(46.919 -769.123)"/>
                <path id="Path_16" data-name="Path 16" class="cls-5"
                      d="M438.532,1089.628a3.766,3.766,0,0,1-.45,6.741l-48.067,23.9a6.85,6.85,0,0,1-7.246-.6l-98.455-61.63-20.132,10.005,44.777,87.129a4.432,4.432,0,0,1,.4,3.675,4.526,4.526,0,0,1-2.535,2.729L264.3,1182.765a4.639,4.639,0,0,1-3.737.394,4.545,4.545,0,0,1-2.775-2.493l-111.8-217.408a4.432,4.432,0,0,1-.4-3.675,4.526,4.526,0,0,1,2.535-2.729l42.515-21.185a4.66,4.66,0,0,1,3.74-.389,4.565,4.565,0,0,1,2.782,2.489l44.542,86.667,19.28-9.63,6.286-112.956a6.614,6.614,0,0,1,3.8-6.086L318,872.431c2.938-1.454,5.709.52,5.552,3.8l-6.981,136.471Z"
                      transform="translate(42.913 -764.989)"/>
                <path id="Path_17" data-name="Path 17" class="cls-5"
                      d="M537.3,761.487a4.651,4.651,0,0,1,3.738-.385,4.555,4.555,0,0,1,2.774,2.494L655.58,981.032a4.451,4.451,0,0,1,.392,3.68,4.545,4.545,0,0,1-2.536,2.733l-42.515,21.185a4.66,4.66,0,0,1-3.742.386,4.564,4.564,0,0,1-2.779-2.494l-47.627-92.8L535.064,859.67l-3.819,1.926,1.273,64.21L529.1,1045.031a7.33,7.33,0,0,1-4.1,6.317L477.019,1075.2a4.661,4.661,0,0,1-3.742.386,4.565,4.565,0,0,1-2.779-2.494L358.7,855.626a4.451,4.451,0,0,1-.4-3.678,4.545,4.545,0,0,1,2.531-2.736l42.515-21.185a4.66,4.66,0,0,1,3.742-.386,4.565,4.565,0,0,1,2.779,2.495l46.716,90.875,22.677,55.929,3.819-1.926L482.1,908.3l3.124-116.721a7.349,7.349,0,0,1,4.1-6.317Z"
                      transform="translate(38.482 -760.875)"/>
            </g>
            <g id="Group_5" data-name="Group 5" class="cls-4" transform="translate(742.975 -262.724)">
                <path id="Path_18" data-name="Path 18" class="cls-5"
                      d="M891.6-86.874a4.661,4.661,0,0,1,3.74-.389,4.565,4.565,0,0,1,2.782,2.489l18.066,35.158a4.451,4.451,0,0,1,.4,3.678,4.545,4.545,0,0,1-2.531,2.736L830.827-1.8,922.34,176.227a4.451,4.451,0,0,1,.392,3.68,4.545,4.545,0,0,1-2.536,2.733L877.68,203.778a4.66,4.66,0,0,1-3.742.386,4.565,4.565,0,0,1-2.779-2.494L759.407-15.759a4.45,4.45,0,0,1-.4-3.678,4.545,4.545,0,0,1,2.531-2.736Z"
                      transform="translate(-758.783 265.964)"/>
                <path id="Path_19" data-name="Path 19" class="cls-5"
                      d="M1012.557-153.158c48.185-23.959,108.688-13.886,141.539,50L1176-60.549c32.832,63.883,5.2,117.78-42.985,141.729l-4.9,2.456c-48.195,23.949-108.688,13.876-141.539-50.007L964.7-9c-32.841-63.883-5.209-117.77,42.976-141.729Zm18.653,45.548c-25.654,12.759-32.038,37.556-16.3,68.12l26.438,51.413c15.862,30.873,39.784,40.242,65.448,27.483l2.653-1.319c25.664-12.759,32.175-37.257,16.3-68.12l-26.437-51.413c-15.725-30.613-39.784-40.242-65.438-27.483Z"
                      transform="translate(-762.775 268.837)"/>
                <path id="Path_20" data-name="Path 20" class="cls-5"
                      d="M1233.207-259.512c46.4-23.111,92.208-18.3,117.833,31.576l1.674,3.255c26.036,50.652,2.614,93.35-45.13,117.087L1275.9-91.851l36.621,71.259a4.431,4.431,0,0,1,.4,3.675,4.526,4.526,0,0,1-2.535,2.729L1267.86,7a4.641,4.641,0,0,1-3.737.394,4.545,4.545,0,0,1-2.775-2.493L1149.577-212.539a4.45,4.45,0,0,1-.392-3.68,4.545,4.545,0,0,1,2.536-2.733Zm66.583,60.147c-10.428-20.28-26.77-25.114-52.258-12.451l-26.555,13.2,33.566,65.25L1280.56-146.3c25.458-12.663,31.265-29.688,20.847-49.968Z"
                      transform="translate(-766.911 272.829)"/>
            </g>
            <g id="Group_6" data-name="Group 6" class="cls-4" transform="translate(665.687 -231.162)">
                <path id="Path_21" data-name="Path 21" class="cls-5"
                      d="M812.684,287.9a4.65,4.65,0,0,1,3.738-.385,4.555,4.555,0,0,1,2.774,2.494l18.075,35.148a4.45,4.45,0,0,1,.392,3.68,4.545,4.545,0,0,1-2.536,2.733L751.9,372.974,843.42,550.968a4.45,4.45,0,0,1,.392,3.68,4.545,4.545,0,0,1-2.536,2.733L798.76,578.567a4.661,4.661,0,0,1-3.742.386,4.565,4.565,0,0,1-2.779-2.495L680.477,358.973a4.441,4.441,0,0,1-.4-3.682,4.536,4.536,0,0,1,2.541-2.732Z"
                      transform="translate(-679.851 220.522)"/>
                <path id="Path_22" data-name="Path 22" class="cls-5"
                      d="M933.675,221.613c48.195-23.949,108.688-13.876,141.539,50.007l21.9,42.6c32.832,63.883,5.2,117.78-42.985,141.739l-4.9,2.446c-48.185,23.959-108.688,13.886-141.529-50L885.7,365.8c-32.841-63.883-5.209-117.78,42.985-141.729Zm18.6,45.548c-25.664,12.759-32.048,37.556-16.313,68.13L962.4,386.7c15.862,30.873,39.793,40.233,65.448,27.483l2.653-1.329c25.664-12.75,32.176-37.247,16.313-68.12l-26.437-51.413c-15.735-30.6-39.784-40.233-65.448-27.483Z"
                      transform="translate(-683.841 223.395)"/>
                <path id="Path_23" data-name="Path 23" class="cls-5"
                      d="M1154.317,115.238c46.393-23.111,92.2-18.3,117.823,31.576l1.674,3.264c26.036,50.642,2.614,93.35-45.12,117.077l-31.715,15.773,36.621,71.259a4.451,4.451,0,0,1,.392,3.68,4.546,4.546,0,0,1-2.536,2.733l-42.516,21.185a4.661,4.661,0,0,1-3.742.386,4.565,4.565,0,0,1-2.779-2.495L1070.657,162.24a4.45,4.45,0,0,1-.4-3.678,4.545,4.545,0,0,1,2.531-2.736Zm66.583,60.156c-10.418-20.28-26.77-25.124-52.248-12.451l-26.565,13.2,33.527,65.231,26.016-12.933c25.458-12.673,31.275-29.7,20.847-49.978Z"
                      transform="translate(-687.979 227.387)"/>
                <path id="Path_24" data-name="Path 24" class="cls-5"
                      d="M1449.449,78.1a4.65,4.65,0,0,1,3.744-.39,4.554,4.554,0,0,1,2.778,2.5l18.066,35.148a4.451,4.451,0,0,1,.4,3.678,4.545,4.545,0,0,1-2.53,2.736l-83.229,41.407,25.458,49.506,92.472-45.972a4.64,4.64,0,0,1,3.739-.39,4.545,4.545,0,0,1,2.772,2.5l18.075,35.148a4.45,4.45,0,0,1,.392,3.68,4.545,4.545,0,0,1-2.536,2.733L1389.72,279.622a4.64,4.64,0,0,1-3.739.39,4.545,4.545,0,0,1-2.772-2.5L1271.447,60.066a4.431,4.431,0,0,1-.4-3.675,4.526,4.526,0,0,1,2.535-2.729L1412.9-15.6a4.65,4.65,0,0,1,3.738-.385,4.555,4.555,0,0,1,2.774,2.494l18.046,35.139a4.45,4.45,0,0,1,.392,3.68,4.545,4.545,0,0,1-2.536,2.733l-92.433,45.972,23.363,45.452Z"
                      transform="translate(-692.162 231.763)"/>
                <path id="Path_25" data-name="Path 25" class="cls-5"
                      d="M1634.927-127.854a4.64,4.64,0,0,1,3.737-.394,4.545,4.545,0,0,1,2.775,2.493L1753.2,91.692a4.431,4.431,0,0,1,.4,3.675,4.526,4.526,0,0,1-2.535,2.729l-42.525,21.137a4.641,4.641,0,0,1-3.737.394,4.545,4.545,0,0,1-2.775-2.493L1610.5-60.9l-50.966,25.326,49.35,117.722c23.432,56.073,7.961,87.928-26.8,105.213l-1.7.847c-7.422,3.688-13.464,5.142-22.208,6.134a4.441,4.441,0,0,1-4.808-2.581l-18.085-35.187c-1.616-3.13-.46-5.258,3.339-5.672,6.394-.751,9.547-1.839,12.259-3.187l1.586-.79c9.792-4.873,16.039-14.56,6.286-37.315L1490.872-51.2a4.78,4.78,0,0,1,2.272-6.144Z"
                      transform="translate(-696.739 235.92)"/>
                <path id="Path_26" data-name="Path 26" class="cls-5"
                      d="M1975.913-22.372a3.833,3.833,0,0,1,1.8,3.5,3.853,3.853,0,0,1-2.255,3.239L1927.4,8.279a6.85,6.85,0,0,1-7.246-.6L1821.7-53.9l-20.141,10.005,44.787,87.129a4.441,4.441,0,0,1,.392,3.676,4.536,4.536,0,0,1-2.536,2.728L1801.69,70.823a4.66,4.66,0,0,1-3.74.389,4.565,4.565,0,0,1-2.782-2.489L1683.407-148.771a4.432,4.432,0,0,1-.4-3.675,4.526,4.526,0,0,1,2.535-2.729l42.525-21.185a4.641,4.641,0,0,1,3.737-.394,4.545,4.545,0,0,1,2.775,2.493l44.542,86.667,19.28-9.63,6.247-112.927a6.615,6.615,0,0,1,3.8-6.086l46.932-23.333c2.938-1.454,5.708.52,5.552,3.852l-6.981,136.471Z"
                      transform="translate(-700.745 240.053)"/>
            </g>
            <g id="Group_7" data-name="Group 7" class="cls-4" transform="translate(588.406 22.746)">
                <path id="Path_27" data-name="Path 27" class="cls-5"
                      d="M733.754,662.676a4.66,4.66,0,0,1,3.74-.389,4.565,4.565,0,0,1,2.782,2.489l18.066,35.158a4.45,4.45,0,0,1,.392,3.68,4.545,4.545,0,0,1-2.536,2.733l-83.229,41.407,91.552,177.984a4.441,4.441,0,0,1,.4,3.679,4.535,4.535,0,0,1-2.535,2.734l-42.525,21.185a4.641,4.641,0,0,1-3.739.39,4.545,4.545,0,0,1-2.772-2.5l-111.8-217.485a4.441,4.441,0,0,1-.392-3.676,4.536,4.536,0,0,1,2.536-2.728Z"
                      transform="translate(-600.925 -47.267)"/>
                <path id="Path_28" data-name="Path 28" class="cls-5"
                      d="M854.677,596.392c48.185-23.959,108.688-13.886,141.539,50l21.924,42.592c32.841,63.883,5.209,117.78-42.985,141.739l-4.9,2.446c-48.195,23.959-108.687,13.876-141.539-50.007L806.8,740.567c-32.831-63.873-5.209-117.77,42.985-141.729ZM873.33,641.94c-25.664,12.759-32.038,37.556-16.313,68.12l26.438,51.422c15.872,30.863,39.793,40.233,65.457,27.473l2.654-1.319c25.654-12.759,32.166-37.257,16.3-68.12L941.431,668.1c-15.735-30.613-39.784-40.242-65.448-27.483Z"
                      transform="translate(-604.916 -44.394)"/>
                <path id="Path_29" data-name="Path 29" class="cls-5"
                      d="M1075.387,490.019c46.4-23.063,92.208-18.3,117.833,31.576l1.674,3.255c26.026,50.652,2.614,93.35-45.13,117.087L1118.049,657.7l36.621,71.259a4.451,4.451,0,0,1,.392,3.68,4.545,4.545,0,0,1-2.536,2.733l-42.515,21.185a4.66,4.66,0,0,1-3.742.386,4.565,4.565,0,0,1-2.779-2.495L991.727,536.953a4.45,4.45,0,0,1-.392-3.68,4.545,4.545,0,0,1,2.536-2.733Zm66.583,60.147c-10.428-20.222-26.77-25.114-52.258-12.451l-26.555,13.2,33.527,65.231,26.026-12.933c25.458-12.663,31.265-29.688,20.837-49.968Z"
                      transform="translate(-609.054 -40.402)"/>
                <path id="Path_30" data-name="Path 30" class="cls-5"
                      d="M1370.529,452.882a4.64,4.64,0,0,1,3.737-.394,4.545,4.545,0,0,1,2.775,2.493l18.075,35.158a4.44,4.44,0,0,1,.392,3.676,4.535,4.535,0,0,1-2.536,2.728l-83.229,41.407,25.458,49.506,92.463-45.962a4.661,4.661,0,0,1,3.74-.389,4.565,4.565,0,0,1,2.782,2.489l18.066,35.158a4.432,4.432,0,0,1,.4,3.677,4.527,4.527,0,0,1-2.541,2.726L1310.8,654.411a4.661,4.661,0,0,1-3.74.39,4.566,4.566,0,0,1-2.782-2.489L1192.517,434.826a4.432,4.432,0,0,1-.4-3.677,4.527,4.527,0,0,1,2.541-2.726l139.316-69.256a4.66,4.66,0,0,1,3.74-.389,4.565,4.565,0,0,1,2.782,2.489l18.066,35.158a4.451,4.451,0,0,1,.4,3.678,4.544,4.544,0,0,1-2.531,2.736L1263.957,448.8l23.363,45.452Z"
                      transform="translate(-613.237 -36.025)"/>
                <path id="Path_31" data-name="Path 31" class="cls-5"
                      d="M1555.977,246.917a4.65,4.65,0,0,1,3.738-.385,4.555,4.555,0,0,1,2.774,2.494l111.772,217.437a4.432,4.432,0,0,1,.4,3.677,4.527,4.527,0,0,1-2.541,2.726L1629.6,494.051a4.651,4.651,0,0,1-3.738.385,4.555,4.555,0,0,1-2.774-2.494L1531.577,313.91l-50.917,25.326,49.3,117.664c23.422,56.064,7.951,87.928-26.81,105.213l-1.694.838c-7.432,3.7-13.473,5.152-22.208,6.144a4.471,4.471,0,0,1-4.818-2.581l-18.085-35.187c-1.616-3.139-.45-5.258,3.339-5.672,6.394-.751,9.547-1.839,12.259-3.187l1.586-.79c9.792-4.882,16.039-14.57,6.3-37.315l-67.886-160.815a4.78,4.78,0,0,1,2.272-6.144Z"
                      transform="translate(-617.813 -31.868)"/>
                <path id="Path_32" data-name="Path 32" class="cls-5"
                      d="M1896.983,352.371a3.766,3.766,0,0,1-.45,6.741l-48.067,23.9a6.84,6.84,0,0,1-7.236-.607l-98.455-61.63-20.141,10.015,44.787,87.119a4.45,4.45,0,0,1,.392,3.68,4.545,4.545,0,0,1-2.536,2.733L1722.76,445.46a4.661,4.661,0,0,1-3.742.386,4.565,4.565,0,0,1-2.779-2.494L1604.477,225.914a4.451,4.451,0,0,1-.392-3.68,4.545,4.545,0,0,1,2.536-2.733l42.515-21.185a4.66,4.66,0,0,1,3.742-.386,4.565,4.565,0,0,1,2.779,2.494l44.532,86.667,19.29-9.63,6.247-113.042a6.633,6.633,0,0,1,3.789-6.1l46.941-23.333c2.938-1.454,5.7.53,5.552,3.8l-6.991,136.471Z"
                      transform="translate(-621.82 -27.727)"/>
                <path id="Path_33" data-name="Path 33" class="cls-5"
                      d="M1995.747,24.236a4.651,4.651,0,0,1,3.744-.39,4.555,4.555,0,0,1,2.777,2.5L2114.03,243.782a4.433,4.433,0,0,1,.4,3.675,4.526,4.526,0,0,1-2.535,2.729l-42.525,21.185a4.641,4.641,0,0,1-3.737.394,4.544,4.544,0,0,1-2.774-2.493l-47.676-92.762-21.718-54.041-3.819,1.926,1.273,64.21-3.407,119.224a7.329,7.329,0,0,1-4.1,6.307l-47.941,23.776a4.661,4.661,0,0,1-3.74.389,4.565,4.565,0,0,1-2.782-2.489l-111.8-217.456a4.441,4.441,0,0,1-.392-3.676,4.536,4.536,0,0,1,2.536-2.728l42.516-21.185a4.66,4.66,0,0,1,3.74-.389,4.565,4.565,0,0,1,2.782,2.489l46.706,90.884,22.677,55.929,3.819-1.926-.979-66.7,3.123-116.73a7.319,7.319,0,0,1,4.093-6.307Z"
                      transform="translate(-626.25 -23.621)"/>
            </g>
            <g id="Group_8" data-name="Group 8" class="cls-4" transform="translate(511.089 383.611)">
                <path id="Path_34" data-name="Path 34" class="cls-5"
                      d="M654.823,1037.456a4.651,4.651,0,0,1,3.741-.394,4.555,4.555,0,0,1,2.78,2.493l18.066,35.158a4.431,4.431,0,0,1,.4,3.675,4.526,4.526,0,0,1-2.535,2.729l-83.229,41.407,91.474,177.994a4.451,4.451,0,0,1,.4,3.678,4.545,4.545,0,0,1-2.531,2.736l-42.515,21.185a4.661,4.661,0,0,1-3.742.385,4.565,4.565,0,0,1-2.779-2.495L522.587,1108.571a4.45,4.45,0,0,1-.4-3.678,4.545,4.545,0,0,1,2.531-2.736Z"
                      transform="translate(-521.963 -422.012)"/>
                <path id="Path_35" data-name="Path 35" class="cls-5"
                      d="M775.776,971.163c48.185-23.949,108.688-13.876,141.539,50.007l21.884,42.6c32.831,63.883,5.2,117.78-42.985,141.738l-4.9,2.446c-48.195,23.958-108.687,13.886-141.539-50l-21.9-42.611c-32.841-63.893-5.209-117.818,42.976-141.729Zm18.6,45.558c-25.654,12.75-32.038,37.555-16.3,68.12l26.438,51.413c15.862,30.873,39.784,40.233,65.447,27.483l2.654-1.319c25.664-12.759,32.175-37.257,16.3-68.13l-26.437-51.413c-15.725-30.6-39.784-40.233-65.438-27.483Z"
                      transform="translate(-525.955 -419.139)"/>
                <path id="Path_36" data-name="Path 36" class="cls-5"
                      d="M996.457,864.8c46.4-23.111,92.208-18.3,117.833,31.566l1.674,3.264c26.036,50.642,2.615,93.35-45.13,117.077l-31.715,15.773,36.621,71.259a4.441,4.441,0,0,1,.4,3.679,4.535,4.535,0,0,1-2.535,2.734l-42.525,21.185a4.641,4.641,0,0,1-3.739.39,4.545,4.545,0,0,1-2.772-2.5L912.8,911.685a4.441,4.441,0,0,1-.392-3.676,4.535,4.535,0,0,1,2.536-2.728Zm66.583,60.147c-10.428-20.28-26.77-25.124-52.258-12.451l-26.555,13.2,33.527,65.231,26.016-12.933c25.458-12.673,31.265-29.7,20.846-49.978Z"
                      transform="translate(-530.092 -415.147)"/>
                <path id="Path_37" data-name="Path 37" class="cls-5"
                      d="M1291.6,827.653a4.64,4.64,0,0,1,3.739-.39,4.545,4.545,0,0,1,2.772,2.5l18.075,35.148a4.451,4.451,0,0,1,.392,3.68,4.545,4.545,0,0,1-2.536,2.733l-83.229,41.407,25.458,49.506,92.463-45.972a4.661,4.661,0,0,1,3.742-.386,4.565,4.565,0,0,1,2.779,2.495l18.075,35.148a4.451,4.451,0,0,1,.392,3.68,4.546,4.546,0,0,1-2.536,2.733l-139.316,69.256a4.641,4.641,0,0,1-3.739.39,4.545,4.545,0,0,1-2.772-2.5L1113.587,809.607a4.441,4.441,0,0,1-.392-3.676,4.536,4.536,0,0,1,2.536-2.728l139.306-69.227a4.651,4.651,0,0,1,3.741-.394,4.556,4.556,0,0,1,2.78,2.493l18.065,35.158a4.431,4.431,0,0,1,.4,3.675,4.526,4.526,0,0,1-2.535,2.729l-92.472,45.972,23.363,45.452Z"
                      transform="translate(-534.275 -410.772)"/>
                <path id="Path_38" data-name="Path 38" class="cls-5"
                      d="M1477.048,621.7a4.641,4.641,0,0,1,3.737-.394,4.545,4.545,0,0,1,2.775,2.493l111.772,217.447a4.431,4.431,0,0,1,.4,3.677,4.526,4.526,0,0,1-2.541,2.726l-42.515,21.137a4.641,4.641,0,0,1-3.737.394,4.545,4.545,0,0,1-2.775-2.493l-91.513-178.033-50.917,25.326,49.33,117.722c23.422,56.073,7.951,87.938-26.81,105.213l-1.694.847c-7.432,3.688-13.464,5.142-22.208,6.134a4.461,4.461,0,0,1-4.818-2.581l-18.085-35.187c-1.606-3.13-.45-5.258,3.339-5.672,6.4-.751,9.547-1.839,12.269-3.187l1.576-.79c9.792-4.873,16.039-14.56,6.3-37.315l-67.886-160.815a4.78,4.78,0,0,1,2.272-6.144Z"
                      transform="translate(-538.853 -406.614)"/>
                <path id="Path_39" data-name="Path 39" class="cls-5"
                      d="M1818.053,727.158a3.766,3.766,0,0,1-.45,6.741l-48.067,23.891a6.84,6.84,0,0,1-7.236-.6l-98.455-61.63-20.132,10.005,44.807,87.215a4.432,4.432,0,0,1,.4,3.675,4.526,4.526,0,0,1-2.535,2.729l-42.525,21.137a4.64,4.64,0,0,1-3.737.394,4.545,4.545,0,0,1-2.775-2.493l-111.8-217.447a4.441,4.441,0,0,1-.392-3.676,4.536,4.536,0,0,1,2.536-2.728l42.516-21.137a4.65,4.65,0,0,1,3.744-.39,4.554,4.554,0,0,1,2.778,2.5l44.542,86.667,19.28-9.63,6.247-113.042a6.6,6.6,0,0,1,3.8-6.1l46.931-23.265c2.938-1.454,5.7.52,5.552,3.8L1696.1,650.256Z"
                      transform="translate(-542.858 -402.481)"/>
                <path id="Path_40" data-name="Path 40" class="cls-5"
                      d="M1916.826,398.977a4.65,4.65,0,0,1,3.738-.385,4.555,4.555,0,0,1,2.774,2.494L2035.1,618.532a4.451,4.451,0,0,1,.4,3.678,4.545,4.545,0,0,1-2.531,2.736l-42.515,21.185a4.661,4.661,0,0,1-3.742.386,4.565,4.565,0,0,1-2.779-2.495l-47.675-92.753-21.718-54.07-3.809,1.926,1.273,64.21-3.417,119.224a7.352,7.352,0,0,1-4.132,6.269l-47.979,23.853a4.652,4.652,0,0,1-3.738.385,4.555,4.555,0,0,1-2.774-2.494L1738.187,493.135a4.451,4.451,0,0,1-.392-3.68,4.545,4.545,0,0,1,2.536-2.733l42.515-21.137a4.66,4.66,0,0,1,3.742-.386,4.565,4.565,0,0,1,2.779,2.495l46.706,90.875,22.677,55.929,3.829-1.926-.979-66.714,3.123-116.721a7.349,7.349,0,0,1,4.1-6.317Z"
                      transform="translate(-547.288 -398.365)"/>
            </g>
            <g id="Group_9" data-name="Group 9" class="cls-4" transform="translate(1227.62 744.535)">
                <path id="Path_41" data-name="Path 41" class="cls-5"
                      d="M1398.128,996.466a4.651,4.651,0,0,1,3.738-.385,4.555,4.555,0,0,1,2.774,2.494l111.772,217.437a4.432,4.432,0,0,1,.4,3.675,4.526,4.526,0,0,1-2.535,2.729l-42.525,21.185a4.651,4.651,0,0,1-3.738.385,4.554,4.554,0,0,1-2.774-2.494l-91.523-178.09-50.917,25.326,49.33,117.732c23.432,56.064,7.961,87.928-26.8,105.213l-1.7.838c-7.432,3.7-13.464,5.152-22.208,6.134a4.441,4.441,0,0,1-4.808-2.571l-18.085-35.187c-1.616-3.139-.46-5.258,3.339-5.682,6.394-.741,9.547-1.83,12.259-3.178l1.576-.79c9.792-4.882,16.049-14.57,6.3-37.315l-67.876-160.815a4.78,4.78,0,0,1,2.272-6.144Z"
                      transform="translate(-1253.74 -781.419)"/>
                <path id="Path_42" data-name="Path 42" class="cls-5"
                      d="M1739.133,1101.924a3.766,3.766,0,0,1-.451,6.741l-48.067,23.9a6.85,6.85,0,0,1-7.246-.607l-98.455-61.63-20.132,10.015,44.777,87.119a4.451,4.451,0,0,1,.4,3.678,4.544,4.544,0,0,1-2.531,2.736l-42.515,21.185a4.66,4.66,0,0,1-3.742.386,4.565,4.565,0,0,1-2.779-2.495L1446.626,975.516a4.45,4.45,0,0,1-.4-3.678,4.545,4.545,0,0,1,2.531-2.736l42.516-21.137a4.66,4.66,0,0,1,3.742-.386,4.565,4.565,0,0,1,2.779,2.495l44.542,86.667,19.28-9.63,6.247-113.042a6.643,6.643,0,0,1,3.8-6.1l46.932-23.333c2.938-1.454,5.708.52,5.552,3.8l-6.981,136.481Z"
                      transform="translate(-1257.745 -777.282)"/>
                <path id="Path_43" data-name="Path 43" class="cls-5"
                      d="M1837.9,773.786a4.641,4.641,0,0,1,3.739-.39,4.545,4.545,0,0,1,2.772,2.5L1956.18,993.332a4.431,4.431,0,0,1,.4,3.677,4.526,4.526,0,0,1-2.541,2.726l-42.516,21.185a4.64,4.64,0,0,1-3.737.394,4.546,4.546,0,0,1-2.775-2.493l-47.685-92.762-21.708-54.041-3.819,1.926,1.273,64.21-3.417,119.224a7.321,7.321,0,0,1-4.093,6.307l-47.979,23.853a4.66,4.66,0,0,1-3.74.39,4.566,4.566,0,0,1-2.782-2.489L1659.3,867.916a4.431,4.431,0,0,1-.4-3.675,4.526,4.526,0,0,1,2.535-2.729l42.525-21.1a4.64,4.64,0,0,1,3.737-.394,4.545,4.545,0,0,1,2.775,2.493l46.716,90.884,22.677,55.929,3.819-1.926-.979-66.7,3.133-116.73a7.32,7.32,0,0,1,4.093-6.307Z"
                      transform="translate(-1262.176 -773.171)"/>
            </g>
            <g id="Group_10" data-name="Group 10" class="cls-4" transform="translate(1861.913 649.386)">
                <path id="Path_44" data-name="Path 44" class="cls-5"
                      d="M2034.354,674.976a4.66,4.66,0,0,1,3.74-.389,4.565,4.565,0,0,1,2.782,2.489l18.065,35.158a4.431,4.431,0,0,1,.4,3.677,4.526,4.526,0,0,1-2.541,2.726l-83.229,41.407,91.5,178.033a4.45,4.45,0,0,1,.4,3.678,4.545,4.545,0,0,1-2.531,2.736l-42.467,21.1a4.651,4.651,0,0,1-3.738.385,4.555,4.555,0,0,1-2.774-2.494l-111.8-217.437a4.441,4.441,0,0,1-.4-3.679,4.536,4.536,0,0,1,2.535-2.734Z"
                      transform="translate(-1901.529 -674.363)"/>
            </g>
        </g>
    </g>
</svg>
