<svg xmlns="http://www.w3.org/2000/svg" viewBox="0 0 48.182 27.455">
  <defs>
    <style>
      .cls-1 {
        fill: #334a97;
      }

      .cls-1, .cls-2 {
        stroke-linejoin: round;
      }

      .cls-2 {
        fill: #e31921;
      }

      .cls-3, .cls-4 {
        stroke: none;
      }

      .cls-4 {
        fill: #fff;
      }
    </style>
  </defs>
  <g id="Слой_1" data-name="Слой 1" transform="translate(2 2)">
    <g id="Logo_IBS" transform="translate(0 0)">
      <g id="Path_1" data-name="Path 1" class="cls-1" transform="translate(-202.99 -14.837)">
        <path class="cls-3" d="M 201.9899291992188 39.42541885375977 L 201.9899291992188 38.07783889770508 L 201.9899291992188 18.72186851501465 L 201.9899291992188 17.97979927062988 L 202.7001647949219 17.76476860046387 L 212.5493469238281 14.78289794921875 L 213.839111328125 14.39241790771484 L 213.839111328125 15.73999881744385 L 213.839111328125 35.09597778320313 L 213.839111328125 35.83804702758789 L 213.1288757324219 36.05307769775391 L 203.2796936035156 39.03493881225586 L 201.9899291992188 39.42541885375977 Z"/>
        <path class="cls-4" d="M 202.9899291992188 38.07783889770508 L 212.839111328125 35.09597778320313 L 212.839111328125 15.73999881744385 L 202.9899291992188 18.72186851501465 L 202.9899291992188 38.07783889770508 M 202.9900665283203 40.07785797119141 C 202.5657501220703 40.07785797119141 202.14697265625 39.94282531738281 201.798095703125 39.68392944335938 C 201.2896881103516 39.30664825439453 200.9899291992188 38.7109375 200.9899291992188 38.07783889770508 L 200.9899291992188 18.72186851501465 C 200.9899291992188 17.84051895141602 201.5668640136719 17.06305885314941 202.410400390625 16.80766868591309 L 212.2595825195313 13.82579803466797 C 212.44970703125 13.768235206604 212.6449584960938 13.73997783660889 212.8389739990234 13.73997783660889 C 213.2632904052734 13.73997783660889 213.6820678710938 13.87501239776611 214.0309448242188 14.13390827178955 C 214.5393524169922 14.5111780166626 214.839111328125 15.10689830780029 214.839111328125 15.73999881744385 L 214.839111328125 35.09597778320313 C 214.839111328125 35.97732925415039 214.2621765136719 36.75478744506836 213.4186401367188 37.01017761230469 L 203.5694580078125 39.99203872680664 C 203.3793334960938 40.04960250854492 203.18408203125 40.07785797119141 202.9900665283203 40.07785797119141 Z"/>
      </g>
      <g id="Path_2" data-name="Path 2" class="cls-1" transform="translate(-408.67 0.003)">
        <path class="cls-3" d="M 421.090087890625 24.82957458496094 L 421.090087890625 23.45172500610352 L 421.090087890625 3.675094366073608 L 421.090087890625 2.949994325637817 L 421.7792663574219 2.724624395370483 L 432.7260437011719 -0.855029821395874 C 432.8435363769531 -0.8960527181625366 433.1951599121094 -1.003435611724854 433.6549987792969 -1.003435611724854 C 434.6441040039063 -1.003435611724854 436.9425964355469 -0.493405282497406 436.9498901367188 4.2264404296875 C 436.9637451171875 4.579141139984131 437.0008544921875 7.225361347198486 435.1579895019531 9.471935272216797 C 435.3355407714844 9.586432456970215 435.5115356445313 9.727497100830078 435.6810913085938 9.900684356689453 C 436.5463256835938 10.78446292877197 436.964111328125 12.25717258453369 436.9229125976563 14.27815055847168 C 436.9228210449219 14.43546962738037 436.9120178222656 15.6317081451416 436.6197814941406 16.92749404907227 C 436.0445251464844 19.4781608581543 434.8341674804688 20.35844802856445 433.9175720214844 20.64728164672852 L 422.4000549316406 24.40246391296387 L 421.090087890625 24.82957458496094 Z M 427.459228515625 15.65674686431885 L 427.459228515625 16.31916809082031 C 428.3818054199219 16.17954635620117 429.3407897949219 15.89998149871826 429.6131286621094 15.51531410217285 C 429.6400451660156 15.47730827331543 429.6755065917969 15.42720794677734 429.64501953125 15.2887077331543 C 429.596435546875 15.25400161743164 429.4651489257813 15.19928455352783 429.2073059082031 15.19928455352783 C 428.8831176757813 15.19928455352783 428.3313293457031 15.28552055358887 427.459228515625 15.65674686431885 Z M 427.459228515625 6.433603286743164 L 427.459228515625 7.092530727386475 C 428.3823547363281 6.953302383422852 429.341796875 6.674251556396484 429.61376953125 6.290074348449707 C 429.6403198242188 6.252559185028076 429.6753540039063 6.203108787536621 429.64501953125 6.065865993499756 C 429.5965270996094 6.031149864196777 429.4651794433594 5.97629451751709 429.2069091796875 5.97629451751709 C 428.8827514648438 5.97629451751709 428.3311462402344 6.062460422515869 427.459228515625 6.433603286743164 Z"/>
        <path class="cls-4" d="M 433.6549682617188 -0.0034332275390625 C 433.3002014160156 -0.0034332275390625 433.0488891601563 0.09150505065917969 433.0488891601563 0.09150505065917969 L 422.090087890625 3.675094604492188 L 422.090087890625 23.45172500610352 L 433.6129150390625 19.69480514526367 C 435.9498901367188 18.96415519714355 435.9229125976563 14.26814460754395 435.9229125976563 14.26814460754395 C 436.0028991699219 10.49545097351074 434.3839416503906 10.00782489776611 433.5416564941406 10.0078067779541 C 433.2480773925781 10.00780010223389 433.0488891601563 10.06704425811768 433.0488891601563 10.06704425811768 C 436.156982421875 7.903504371643066 435.9498901367188 4.249143600463867 435.9498901367188 4.249143600463867 C 435.9498901367188 0.5422439575195313 434.50537109375 -0.0034332275390625 433.6549682617188 -0.0034332275390625 M 426.459228515625 8.190534591674805 L 426.459228515625 5.792924880981445 C 427.7130432128906 5.177410125732422 428.5928649902344 4.976291656494141 429.2069091796875 4.976291656494141 C 430.3631286621094 4.976291656494141 430.5777587890625 5.688703536987305 430.5777587890625 5.688703536987305 C 431.3299560546875 8.051204681396484 426.459228515625 8.189414024353027 426.459228515625 8.189414024353027 L 426.459228515625 8.190534591674805 M 426.459228515625 17.41646385192871 L 426.459228515625 15.01607513427734 C 427.7135009765625 14.40034294128418 428.5932312011719 14.19928646087646 429.2073059082031 14.19928646087646 C 430.3629760742188 14.19928646087646 430.5777587890625 14.91129493713379 430.5777587890625 14.91129493713379 C 431.3299560546875 17.27713394165039 426.459228515625 17.41646385192871 426.459228515625 17.41646385192871 M 433.6549987792969 -2.003435134887695 C 434.860595703125 -2.003435134887695 435.9416198730469 -1.468305587768555 436.6988525390625 -0.4966354370117188 C 437.5361633300781 0.5777530670166016 437.9454650878906 2.119365692138672 437.9498596191406 4.215265274047852 C 437.9632873535156 4.689901351928711 437.9500427246094 7.056641578674316 436.5033264160156 9.315129280090332 C 437.5024108886719 10.4115686416626 437.9671020507813 12.04045391082764 437.9229431152344 14.28701305389404 C 437.9226684570313 14.53157997131348 437.9050903320313 15.77381324768066 437.5952758789063 17.14750480651855 C 436.9165649414063 20.15677833557129 435.3901977539063 21.22989463806152 434.2236022949219 21.59932136535645 L 422.7100524902344 25.35321426391602 C 422.5073852539063 25.41928863525391 422.2981567382813 25.45174026489258 422.0902404785156 25.45174026489258 C 421.6733093261719 25.45174026489258 421.26123046875 25.32140159606934 420.9153442382813 25.07035446166992 C 420.3969116210938 24.69410514831543 420.090087890625 24.09229469299316 420.090087890625 23.45172500610352 L 420.090087890625 3.675094604492188 C 420.090087890625 2.810033798217773 420.646240234375 2.043024063110352 421.4684753417969 1.774154663085938 L 432.40234375 -1.801290512084961 C 432.6157531738281 -1.875648498535156 433.0680541992188 -2.003435134887695 433.6549987792969 -2.003435134887695 Z"/>
      </g>
      <g id="Path_3" data-name="Path 3" class="cls-2" transform="translate(-662.406 -0.367)">
        <path class="cls-3" d="M 691.5524291992188 25.08115386962891 L 691.5448608398438 23.80725479125977 L 691.5093383789063 17.78848457336426 L 691.5054321289063 17.12174415588379 L 692.119384765625 16.86174392700195 L 694.7865600585938 15.73226737976074 L 692.1731567382813 11.80633449554443 L 692.167724609375 11.79813480377197 L 692.1624145507813 11.78982448577881 C 692.08837890625 11.67373466491699 690.37255859375 8.907384872436523 692.355224609375 5.481034278869629 C 693.1991577148438 4.022774696350098 695.77490234375 2.600764513015747 700.2296752929688 1.133724570274353 C 703.3677978515625 0.100304514169693 706.24560546875 -0.5576154589653015 706.3665771484375 -0.5851154923439026 L 707.5916748046875 -0.8636354804039001 L 707.5882568359375 0.3927545249462128 L 707.5704956054688 6.845654487609863 L 707.5685424804688 7.555824279785156 L 706.8973999023438 7.78797435760498 L 704.4716186523438 8.62700080871582 L 707.048095703125 12.34379482269287 L 707.1080322265625 12.43026447296143 L 707.148681640625 12.52732467651367 C 707.1909790039063 12.62830448150635 708.1694946289063 15.03679466247559 706.9038696289063 18.1982536315918 C 706.5205078125 19.15639495849609 705.30029296875 20.68057441711426 699.1575317382813 22.84391403198242 C 695.93798828125 23.97777366638184 692.9151611328125 24.73945426940918 692.7880859375 24.77132415771484 L 691.5524291992188 25.08115386962891 Z"/>
        <path class="cls-4" d="M 706.5882568359375 0.3899936676025391 C 706.5882568359375 0.3899936676025391 694.9220581054688 3.042163848876953 693.2207641601563 5.981884002685547 C 691.5196533203125 8.921614646911621 693.005615234375 11.2522144317627 693.005615234375 11.2522144317627 L 696.28759765625 16.18258476257324 L 692.5093383789063 17.78257369995117 L 692.5448608398438 23.80134391784668 C 692.5448608398438 23.80134391784668 704.81591796875 20.72453498840332 705.9755249023438 17.82660484313965 C 707.103515625 15.00892448425293 706.2262573242188 12.9135046005249 706.2262573242188 12.9135046005249 L 702.8984985351563 8.112974166870117 L 706.5704956054688 6.842905044555664 L 706.5882568359375 0.3899936676025391 M 706.5881958007813 -1.610023498535156 C 707.0382080078125 -1.610023498535156 707.47998046875 -1.458053588867188 707.8380737304688 -1.171415328979492 C 708.3137817382813 -0.7906551361083984 708.5899047851563 -0.2138156890869141 708.5882568359375 0.3954944610595703 L 708.5704956054688 6.848403930664063 C 708.568115234375 7.698974609375 708.028076171875 8.455004692077637 707.2242431640625 8.733034133911133 L 706.044677734375 9.141022682189941 L 707.8699340820313 11.77408409118652 C 707.9496459960938 11.88906478881836 708.01708984375 12.01209449768066 708.0711059570313 12.14114475250244 C 708.1932373046875 12.43294429779053 709.2244262695313 15.09236431121826 707.832275390625 18.56990432739258 C 707.3745727539063 19.71376419067383 706.259765625 20.72434425354004 704.3241577148438 21.74996376037598 C 703.0747680664063 22.41198539733887 701.4482421875 23.09738540649414 699.4896850585938 23.78713417053223 C 696.2267456054688 24.93625450134277 693.1602172851563 25.70896530151367 693.0313110351563 25.74129486083984 C 692.87060546875 25.78158187866211 692.707275390625 25.80136299133301 692.544921875 25.80136299133301 C 692.1056518554688 25.80136299133301 691.673583984375 25.65657997131348 691.3192749023438 25.38180541992188 C 690.833984375 25.00551414489746 690.5485229492188 24.42718505859375 690.544921875 23.81315422058105 L 690.5093383789063 17.79438400268555 C 690.5045776367188 16.98690414428711 690.9859008789063 16.25578498840332 691.7294311523438 15.94090461730957 L 693.2854614257813 15.28195953369141 L 691.3407592773438 12.36046409606934 C 691.3334350585938 12.34952449798584 691.3262939453125 12.33851432800293 691.3192138671875 12.32743453979492 C 691.2206420898438 12.17276477813721 690.7177734375 11.33605480194092 690.5026245117188 10.04925441741943 C 690.2172241210938 8.342164039611816 690.5585327148438 6.589303970336914 691.4896850585938 4.980184555053711 C 692.1100463867188 3.908245086669922 693.6585083007813 2.244903564453125 699.9169311523438 0.1839046478271484 C 703.0994262695313 -0.864166259765625 706.0220336914063 -1.532316207885742 706.1448974609375 -1.560245513916016 C 706.291748046875 -1.593633651733398 706.4404296875 -1.610023498535156 706.5881958007813 -1.610023498535156 Z"/>
      </g>
    </g>
  </g>
</svg>
